<svg width="76" height="28" viewBox="0 0 76 28" fill="none" xmlns="http://www.w3.org/2000/svg">
<g id="Logo" clip-path="url(#clip0_1_577)">
<g id="Vector">
<path d="M26.8021 20.2851V11.7946H26.9533L33.1335 20.2851H35.0784V7.81675H32.9174V16.2858H32.7662L26.586 7.81675H24.6411V20.2851H26.8021ZM41.1938 20.4776C44.0462 20.4776 45.7965 18.6383 45.7965 15.5587C45.7965 12.5004 44.0462 10.6398 41.1938 10.6398C38.3629 10.6398 36.591 12.5004 36.591 15.5587C36.6126 18.6383 38.3413 20.4776 41.1938 20.4776ZM41.1938 18.6811C39.6811 18.6811 38.8167 17.5476 38.8167 15.5587C38.8167 13.5911 39.6811 12.4362 41.1938 12.4362C42.7064 12.4362 43.5708 13.5911 43.5708 15.5587C43.5708 17.5476 42.7064 18.6811 41.1938 18.6811ZM47.7629 8.52251V10.8964H46.2503V12.6073H47.7629V17.7615C47.7629 19.6007 48.6273 20.3279 50.8314 20.3279C51.242 20.3279 51.6526 20.2851 51.9767 20.2209V18.5528C51.7174 18.5742 51.5445 18.5956 51.242 18.5956C50.3344 18.5956 49.9239 18.1892 49.9239 17.2482V12.6073H51.9767V10.8964H49.9239V8.52251H47.7629ZM53.2733 20.2851H55.4342V10.8323H53.2733V20.2851ZM54.3537 9.27103C55.0668 9.27103 55.6503 8.6936 55.6503 7.98784C55.6503 7.2607 55.0668 6.68327 54.3537 6.68327C53.6406 6.68327 53.0572 7.2607 53.0572 7.98784C53.0572 8.6936 53.6406 9.27103 54.3537 9.27103ZM61.3551 20.4776C64.2075 20.4776 65.9579 18.6383 65.9579 15.5587C65.9579 12.5004 64.2075 10.6398 61.3551 10.6398C58.5243 10.6398 56.7524 12.5004 56.7524 15.5587C56.7524 18.6383 58.4811 20.4776 61.3551 20.4776ZM61.3551 18.6811C59.8425 18.6811 58.9781 17.5476 58.9781 15.5587C58.9781 13.5911 59.8425 12.4362 61.3551 12.4362C62.8461 12.4362 63.7321 13.5911 63.7321 15.5587C63.7105 17.5476 62.8461 18.6811 61.3551 18.6811ZM67.2328 20.2851H69.3937V14.7888C69.3937 13.3986 70.2149 12.5218 71.4898 12.5218C72.808 12.5218 73.413 13.2489 73.413 14.6818V20.2851H75.5739V14.1685C75.5739 11.9016 74.4071 10.6398 72.2894 10.6398C70.8631 10.6398 69.9123 11.2814 69.4585 12.3507H69.3073V10.8323H67.2112C67.2328 10.8323 67.2328 20.2851 67.2328 20.2851Z" fill="#4C4C4D"/>
<path fill-rule="evenodd" clip-rule="evenodd" d="M3.92163 7.01872C4.55057 7.52611 4.77806 7.48605 5.95564 7.40594L17.049 6.73833C17.2899 6.73833 17.0892 6.49799 17.0089 6.47128L15.1622 5.14942C14.8143 4.88238 14.3326 4.56192 13.436 4.64204L2.7039 5.42981C2.31583 5.46987 2.23554 5.67015 2.39612 5.81703L3.92163 7.01872ZM4.59071 9.59569V21.2388C4.59071 21.8663 4.89849 22.0933 5.60772 22.0533L17.7984 21.3456C18.5076 21.3056 18.5879 20.8783 18.5879 20.3709V8.80792C18.5879 8.30053 18.3872 8.02014 17.959 8.06019L5.21965 8.80792C4.75129 8.84797 4.59071 9.08831 4.59071 9.59569ZM16.6208 10.2232C16.7011 10.5704 16.6208 10.9309 16.2729 10.971L15.6841 11.0911V19.6899C15.1756 19.957 14.7072 20.1172 14.3058 20.1172C13.6769 20.1172 13.5163 19.9169 13.0479 19.3294L9.20739 13.3076V19.1291L10.4251 19.3962C10.4251 19.3962 10.4251 20.1039 9.44826 20.1039L6.74516 20.2641C6.66487 20.1039 6.74516 19.7166 7.01279 19.6365L7.72202 19.4362V11.7454L6.74516 11.6653C6.66487 11.3181 6.8656 10.8107 7.41424 10.7707L10.3181 10.5704L14.3192 16.659V11.2781L13.3022 11.1579C13.2219 10.7306 13.543 10.4102 13.9311 10.3701L16.6208 10.2232ZM1.80733 4.36164L12.981 3.54716C14.3459 3.42699 14.7072 3.5071 15.5637 4.13465L19.1232 6.63151C19.712 7.05878 19.9127 7.17895 19.9127 7.64628V21.359C19.9127 22.2135 19.6049 22.7209 18.5076 22.801L5.54081 23.5888C4.71115 23.6288 4.32308 23.5087 3.89487 22.9612L1.25868 19.5564C0.790324 18.9289 0.5896 18.4615 0.5896 17.9141V5.72356C0.5896 5.0159 0.910759 4.44175 1.80733 4.36164Z" fill="#4C4C4D"/>
</g>
</g>
<defs>
<clipPath id="clip0_1_577">
<rect width="75.25" height="28" fill="white" transform="translate(0.589355)"/>
</clipPath>
</defs>
</svg>
