<svg width="65" height="28" viewBox="0 0 65 28" fill="none" xmlns="http://www.w3.org/2000/svg">
<g id="Logo" clip-path="url(#clip0_1_561)">
<g id="Vector">
<path fill-rule="evenodd" clip-rule="evenodd" d="M40.0441 22.0533C36.332 24.7894 30.9516 26.2492 26.3192 26.2492C19.8237 26.2492 13.9761 23.8468 9.55224 19.8511C9.20466 19.5369 9.51609 19.1087 9.93318 19.3534C14.7074 22.1312 20.6106 23.8023 26.7084 23.8023C30.8209 23.8023 35.3449 22.9514 39.5047 21.1858C40.1331 20.9188 40.6586 21.5973 40.0441 22.0533Z" fill="#4C4C4D"/>
<path fill-rule="evenodd" clip-rule="evenodd" d="M41.5874 20.2877C41.1147 19.6815 38.4509 20.0013 37.2552 20.1431C36.891 20.1876 36.8354 19.8706 37.1635 19.6426C39.2851 18.1494 42.7663 18.5804 43.1723 19.0809C43.5783 19.5842 43.0666 23.0738 41.073 24.7394C40.7671 24.9952 40.4751 24.8589 40.6114 24.5197C41.0591 23.4019 42.0629 20.8966 41.5874 20.2877Z" fill="#4C4C4D"/>
</g>
<g id="Vector_2">
<path fill-rule="evenodd" clip-rule="evenodd" d="M37.3396 9.10212V7.65066C37.3396 7.43099 37.5064 7.28362 37.7066 7.28362H44.2048C44.4134 7.28362 44.5802 7.43377 44.5802 7.65066V8.89358C44.5774 9.10212 44.4022 9.37462 44.0908 9.80561L40.7235 14.6132C41.9748 14.5827 43.2956 14.769 44.43 15.4085C44.6859 15.5531 44.7554 15.7644 44.7748 15.9729V17.5217C44.7748 17.7331 44.5413 17.9805 44.2966 17.8526C42.2973 16.8043 39.6419 16.6903 37.4313 17.8637C37.2061 17.9861 36.9697 17.7414 36.9697 17.5301V16.0591C36.9697 15.8228 36.9725 15.4196 37.2089 15.0609L41.11 9.46638H37.7149C37.5064 9.46638 37.3396 9.31901 37.3396 9.10212Z" fill="#4C4C4D"/>
<path fill-rule="evenodd" clip-rule="evenodd" d="M13.6351 18.1585H11.6581C11.469 18.1446 11.3188 18.0028 11.3049 17.8221V7.6757C11.3049 7.47272 11.4745 7.31145 11.6859 7.31145H13.5294C13.7213 7.31978 13.8742 7.46716 13.8881 7.65068V8.97702H13.9242C14.4053 7.69517 15.309 7.09734 16.5269 7.09734C17.7642 7.09734 18.5372 7.69517 19.0933 8.97702C19.5716 7.69517 20.6588 7.09734 21.8239 7.09734C22.6525 7.09734 23.559 7.43935 24.1123 8.20679C24.7379 9.06043 24.61 10.3006 24.61 11.3878L24.6072 17.7915C24.6072 17.9944 24.4376 18.1585 24.2263 18.1585H22.2521C22.0547 18.1446 21.8962 17.9861 21.8962 17.7915V12.4138C21.8962 11.9856 21.9351 10.9179 21.8406 10.5119C21.6932 9.83066 21.2511 9.63879 20.6783 9.63879C20.2 9.63879 19.6995 9.95856 19.4965 10.4702C19.2935 10.9818 19.313 11.8382 19.313 12.4138V17.7915C19.313 17.9944 19.1434 18.1585 18.9321 18.1585H16.9579C16.7577 18.1446 16.6019 17.9861 16.6019 17.7915L16.5992 12.4138C16.5992 11.2821 16.7855 9.61655 15.3813 9.61655C13.9604 9.61655 14.016 11.2404 14.016 12.4138V17.7915C14.016 17.9944 13.8464 18.1585 13.6351 18.1585Z" fill="#4C4C4D"/>
<path fill-rule="evenodd" clip-rule="evenodd" d="M50.1747 7.09734C53.1082 7.09734 54.6959 9.61655 54.6959 12.8198C54.6959 15.9146 52.9413 18.3698 50.1747 18.3698C47.294 18.3698 45.7257 15.8506 45.7257 12.7113C45.7257 9.5526 47.3134 7.09734 50.1747 7.09734ZM50.1913 9.16888C48.7343 9.16888 48.6426 11.1542 48.6426 12.3916C48.6426 13.6317 48.6231 16.2788 50.1747 16.2788C51.7068 16.2788 51.7791 14.1433 51.7791 12.842C51.7791 11.9856 51.7429 10.9624 51.4843 10.1504C51.2619 9.44415 50.8198 9.16888 50.1913 9.16888Z" fill="#4C4C4D"/>
<path fill-rule="evenodd" clip-rule="evenodd" d="M58.4998 18.1585H56.5311C56.3337 18.1446 56.1752 17.9861 56.1752 17.7915L56.1725 7.64234C56.1891 7.45604 56.3532 7.31145 56.5534 7.31145H58.3858C58.5582 7.31978 58.7 7.43657 58.7389 7.59507V9.14663H58.7751C59.3284 7.75912 60.1042 7.09734 61.4695 7.09734C62.3565 7.09734 63.2212 7.41711 63.7773 8.29299C64.2945 9.10492 64.2945 10.4702 64.2945 11.4517V17.8387C64.2723 18.0167 64.1082 18.1585 63.9136 18.1585H61.931C61.7503 18.1446 61.6002 18.0111 61.5807 17.8387V12.3276C61.5807 11.2182 61.7086 9.5943 60.3433 9.5943C59.8623 9.5943 59.4202 9.91685 59.2005 10.4062C58.9225 11.0263 58.8863 11.6436 58.8863 12.3276V17.7915C58.8835 17.9944 58.7111 18.1585 58.4998 18.1585Z" fill="#4C4C4D"/>
<path fill-rule="evenodd" clip-rule="evenodd" d="M32.1593 13.3119C32.1593 14.0821 32.1788 14.7245 31.7895 15.4085C31.4753 15.9646 30.9748 16.3066 30.4215 16.3066C29.6624 16.3066 29.2175 15.7283 29.2175 14.8746C29.2175 13.1896 30.7273 12.8837 32.1593 12.8837V13.3119ZM34.153 18.1307C34.0223 18.2475 33.8333 18.2558 33.6859 18.178C33.0297 17.633 32.9101 17.3799 32.5514 16.86C31.467 17.9666 30.6968 18.2975 29.2926 18.2975C27.627 18.2975 26.334 17.2715 26.334 15.2166C26.334 13.6122 27.2016 12.5195 28.4417 11.9856C29.515 11.5129 31.0137 11.4295 32.1593 11.2988V11.043C32.1593 10.5731 32.1955 10.0169 31.9174 9.61097C31.6783 9.24671 31.2167 9.09656 30.808 9.09656C30.0544 9.09656 29.3843 9.48306 29.2203 10.2839C29.1869 10.4618 29.0562 10.637 28.8755 10.6453L26.9597 10.4396C26.7984 10.4034 26.6176 10.2727 26.6649 10.0253C27.1042 7.70071 29.2064 7 31.086 7C32.0481 7 33.3049 7.25581 34.064 7.98433C35.0261 8.88246 34.9344 10.0809 34.9344 11.385V14.4659C34.9344 15.3918 35.3181 15.7978 35.6796 16.2983C35.8047 16.4762 35.8325 16.6903 35.6712 16.8238C35.268 17.1603 34.5506 17.7859 34.1558 18.1362L34.153 18.1307Z" fill="#4C4C4D"/>
<path fill-rule="evenodd" clip-rule="evenodd" d="M6.24146 13.3119C6.24146 14.0821 6.26092 14.7245 5.87164 15.4085C5.55743 15.9646 5.05971 16.3066 4.50359 16.3066C3.74449 16.3066 3.30238 15.7282 3.30238 14.8746C3.30238 13.1896 4.81224 12.8837 6.24146 12.8837V13.3119ZM8.23514 18.1307C8.10445 18.2475 7.91537 18.2558 7.768 18.1779C7.11178 17.633 6.99499 17.3799 6.63352 16.8599C5.54909 17.9666 4.78165 18.2975 3.37468 18.2975C1.71189 18.2975 0.416138 17.2715 0.416138 15.2166C0.416138 13.6122 1.28646 12.5195 2.52382 11.9856C3.59712 11.5129 5.09586 11.4295 6.24146 11.2988V11.043C6.24146 10.573 6.27761 10.0169 6.00233 9.61097C5.76042 9.24671 5.29884 9.09656 4.89287 9.09656C4.13934 9.09656 3.46644 9.48306 3.30238 10.2839C3.26901 10.4618 3.13833 10.637 2.96037 10.6453L1.04177 10.4396C0.880495 10.4034 0.702537 10.2727 0.747027 10.0253C1.18914 7.70071 3.28848 7 5.16815 7C6.13023 7 7.38706 7.25581 8.14616 7.98433C9.10824 8.88245 9.01648 10.0809 9.01648 11.385V14.4659C9.01648 15.3918 9.4002 15.7978 9.76168 16.2983C9.88958 16.4762 9.91739 16.6903 9.75611 16.8238C9.35293 17.1603 8.63554 17.7859 8.24069 18.1362L8.23514 18.1307Z" fill="#4C4C4D"/>
</g>
</g>
<defs>
<clipPath id="clip0_1_561">
<rect width="64.1666" height="28" fill="white" transform="translate(0.416687)"/>
</clipPath>
</defs>
</svg>
