<svg width="79" height="28" viewBox="0 0 79 28" fill="none" xmlns="http://www.w3.org/2000/svg">
<g id="Logo" clip-path="url(#clip0_1_566)">
<path id="Vector" d="M9.10293 3.5H0.565857V23.9167L9.10293 3.5Z" fill="#4C4C4D"/>
<path id="Vector_2" d="M15.1094 3.5H23.6354V23.9167L15.1094 3.5Z" fill="#4C4C4D"/>
<path id="Vector_3" d="M12.106 11.0249L17.5397 23.9167H13.9747L12.3507 19.8122H8.37415L12.106 11.0249Z" fill="#4C4C4D"/>
<path id="Vector_4" d="M37.5633 16.4827L38.5699 19.3692C38.6033 19.4415 38.6534 19.4749 38.7423 19.4749H40.6778C40.7835 19.4749 40.8001 19.4248 40.7835 19.3191L36.7847 8.2126C36.768 8.12362 36.7513 8.10693 36.6623 8.10693H34.2597C34.193 8.10693 34.154 8.15699 34.154 8.22929C34.1206 8.81326 34.0706 8.99123 33.9983 9.16364L30.4333 19.3025C30.4166 19.4248 30.4556 19.4749 30.5557 19.4749H32.2853C32.391 19.4749 32.441 19.4415 32.48 19.3358L33.431 16.4827H37.5633ZM33.9816 14.5973C34.5044 13.0178 35.194 10.9934 35.4721 9.83659H35.4888C35.8336 11.049 36.6456 13.4516 37.0127 14.5973H33.9816Z" fill="#4C4C4D"/>
<path id="Vector_5" d="M45.9243 19.6466C46.9643 19.6466 48.0711 19.4576 49.1945 18.9737C49.2835 18.9403 49.3002 18.9014 49.3002 18.818C49.2668 18.5065 49.2279 18.056 49.2279 17.7112V7.25538C49.2279 7.18864 49.2279 7.15527 49.1445 7.15527H47.2591C47.1868 7.15527 47.1534 7.18864 47.1534 7.27763V10.8204C46.8586 10.787 46.6529 10.7703 46.4082 10.7703C43.366 10.7703 41.4973 12.7781 41.4973 15.2863C41.4973 18.1951 43.416 19.6466 45.9243 19.6466ZM47.1534 17.7112C46.842 17.8113 46.4971 17.8502 46.1468 17.8502C44.7675 17.8502 43.6385 17.0716 43.6385 15.1807C43.6385 13.5066 44.8009 12.5167 46.3414 12.5167C46.6529 12.5167 46.9254 12.55 47.1534 12.639V17.7112Z" fill="#4C4C4D"/>
<path id="Vector_6" d="M55.3137 10.7715C52.7164 10.7715 51.1091 12.7625 51.1091 15.2208C51.1091 17.4176 52.3883 19.6478 55.2748 19.6478C57.7163 19.6478 59.4293 17.8514 59.4293 15.1652C59.4293 12.7959 57.9777 10.7715 55.3137 10.7715ZM55.208 12.5178C56.6763 12.5178 57.2992 13.7803 57.2992 15.2208C57.2992 17.0005 56.3815 17.8848 55.3137 17.8848C53.9956 17.8848 53.217 16.778 53.217 15.1818C53.217 13.5412 54.0457 12.5178 55.208 12.5178Z" fill="#4C4C4D"/>
<path id="Vector_7" d="M61.3793 7.15527C61.307 7.15527 61.257 7.18864 61.257 7.27763V19.1127C61.257 19.1628 61.307 19.2518 61.3793 19.2685C62.208 19.5243 63.0756 19.6466 63.971 19.6466C66.5349 19.6466 69.0265 18.056 69.0265 14.8525C69.0265 12.5333 67.4359 10.7703 64.9443 10.7703C64.3715 10.7703 63.8375 10.8593 63.3704 11.015L63.3481 7.29431C63.3481 7.17196 63.3147 7.15527 63.1924 7.15527H61.3793ZM66.8964 15.0639C66.8964 16.9826 65.5839 17.8836 64.1657 17.8836C63.8709 17.8836 63.6095 17.8669 63.3704 17.7946V12.7447C63.6429 12.639 63.971 12.55 64.5772 12.55C65.9454 12.55 66.8964 13.4176 66.8964 15.0639Z" fill="#4C4C4D"/>
<path id="Vector_8" d="M76.0628 15.6879C76.9082 15.6879 77.6034 15.6713 77.8426 15.6156C77.9315 15.599 77.9649 15.5656 77.9816 15.4933C78.0317 15.3042 78.0539 14.9093 78.0539 14.4255C78.0539 12.7792 77.0639 10.7715 74.5056 10.7715C71.8916 10.7715 70.4401 12.9016 70.4401 15.3042C70.4401 17.4343 71.5635 19.6478 74.7114 19.6478C75.8904 19.6478 76.6524 19.4587 77.3086 19.1473C77.3754 19.1139 77.4087 19.0583 77.4087 18.9582V17.5177C77.4087 17.4343 77.3587 17.4176 77.3086 17.451C76.6524 17.7291 75.9405 17.8681 75.1619 17.8681C73.3988 17.8681 72.598 16.8948 72.5479 15.6879H76.0628ZM72.5479 14.1974C72.687 13.3521 73.2209 12.4344 74.4166 12.4344C75.7347 12.4344 76.0795 13.5412 76.0795 14.0417C76.0795 14.0584 76.0795 14.1307 76.0795 14.1808C76.0072 14.1974 75.7848 14.1974 75.1285 14.1974H72.5479Z" fill="#4C4C4D"/>
</g>
<defs>
<clipPath id="clip0_1_566">
<rect width="77.5833" height="28" fill="white" transform="translate(0.565491)"/>
</clipPath>
</defs>
</svg>
