<svg width="58" height="28" viewBox="0 0 58 28" fill="none" xmlns="http://www.w3.org/2000/svg">
<g id="Logo" clip-path="url(#clip0_1_557)">
<path id="Vector" fill-rule="evenodd" clip-rule="evenodd" d="M46.5553 12.0164C46.7736 12.393 46.845 12.8215 46.8686 13.3032L46.8996 13.9453V18.435L46.9313 19.0778C46.9946 20.1275 47.7687 20.9036 48.8265 20.9696L49.4659 21.0013V13.9453L49.4976 13.3032C49.5238 12.8269 49.5946 12.3903 49.8162 12.011C50.0421 11.6219 50.3663 11.2991 50.7564 11.075C51.1465 10.8509 51.5886 10.7333 52.0385 10.7342C52.4884 10.735 52.9301 10.8541 53.3194 11.0797C53.7086 11.3052 54.0317 11.6292 54.2561 12.019C54.4744 12.3957 54.5425 12.8322 54.5688 13.3032L54.6004 13.9432V18.435L54.6321 19.0778C54.6981 20.1329 55.4662 20.909 56.5273 20.9696L57.1667 21.0013V13.3032C57.1667 11.942 56.6261 10.6364 55.6637 9.67371C54.7014 8.71098 53.3961 8.16985 52.0348 8.16932C51.3063 8.16855 50.5859 8.32327 49.9219 8.62314C49.2579 8.92302 48.6656 9.36114 48.1844 9.90823C47.7031 9.36135 47.1107 8.92334 46.4468 8.62338C45.7828 8.32341 45.0626 8.16839 44.334 8.16864C43.2682 8.16864 42.2791 8.49204 41.4599 9.05057C40.96 8.49271 39.8416 8.16864 39.1995 8.16864V21.0013L39.8416 20.9696C40.9155 20.8989 41.6916 20.1436 41.7334 19.0778L41.7678 18.435V13.9453L41.7994 13.3032C41.8264 12.8188 41.8938 12.393 42.1127 12.0137C42.3388 11.6248 42.6629 11.3021 43.0527 11.0777C43.4424 10.8533 43.8843 10.7351 44.334 10.7349C44.7841 10.735 45.2263 10.8535 45.6162 11.0784C46.0061 11.3033 46.3299 11.6268 46.5553 12.0164ZM2.62571 20.9703L3.26778 21.0013H12.8921L12.8604 20.3613C12.7735 19.3062 12.0264 18.5354 10.9679 18.4667L10.3258 18.435H4.55192L12.25 10.7342L12.2184 10.0949C12.1685 9.02901 11.3897 8.25893 10.3258 8.20031L9.68377 8.17134L0.0594482 8.16864L0.0911139 8.81072C0.175331 9.85568 0.933284 10.6426 1.98297 10.7032L2.62571 10.7349H8.39963L0.701519 18.4357L0.733185 19.0778C0.796516 20.1356 1.55986 20.9016 2.62571 20.9696V20.9703ZM36.6804 10.047C37.2763 10.6428 37.749 11.3502 38.0716 12.1287C38.3941 12.9072 38.5601 13.7416 38.5601 14.5843C38.5601 15.427 38.3941 16.2614 38.0716 17.0399C37.749 17.8184 37.2763 18.5258 36.6804 19.1216C35.4764 20.3246 33.8441 21.0003 32.1421 21.0003C30.4401 21.0003 28.8078 20.3246 27.6038 19.1216C25.0982 16.616 25.0982 12.5526 27.6038 10.047C28.1992 9.45142 28.9061 8.97893 29.684 8.65652C30.462 8.33411 31.2959 8.1681 32.1381 8.16797C32.9816 8.16738 33.8169 8.3331 34.5963 8.65564C35.3758 8.97818 36.0839 9.45122 36.6804 10.0477V10.047ZM34.8647 11.8641C35.5864 12.5863 35.9918 13.5656 35.9918 14.5867C35.9918 15.6077 35.5864 16.587 34.8647 17.3092C34.1424 18.0309 33.1631 18.4364 32.1421 18.4364C31.1211 18.4364 30.1418 18.0309 29.4195 17.3092C28.6978 16.587 28.2924 15.6077 28.2924 14.5867C28.2924 13.5656 28.6978 12.5863 29.4195 11.8641C30.1418 11.1424 31.1211 10.737 32.1421 10.737C33.1631 10.737 34.1424 11.1424 34.8647 11.8641ZM18.6714 8.16797C19.5136 8.16819 20.3475 8.33431 21.1255 8.65683C21.9035 8.97936 22.6103 9.45198 23.2057 10.0477C25.712 12.5526 25.712 16.6166 23.2057 19.1216C22.0017 20.3246 20.3693 21.0003 18.6674 21.0003C16.9654 21.0003 15.3331 20.3246 14.1291 19.1216C11.6235 16.616 11.6235 12.5526 14.1291 10.047C14.7245 9.45142 15.4313 8.97893 16.2093 8.65652C16.9873 8.33411 17.8212 8.1681 18.6633 8.16797H18.6714ZM21.3899 11.8627C22.1119 12.585 22.5174 13.5644 22.5174 14.5856C22.5174 15.6069 22.1119 16.5863 21.3899 17.3086C20.6677 18.0303 19.6884 18.4357 18.6674 18.4357C17.6463 18.4357 16.6671 18.0303 15.9448 17.3086C15.2231 16.5863 14.8177 15.607 14.8177 14.586C14.8177 13.5649 15.2231 12.5857 15.9448 11.8634C16.6671 11.1417 17.6463 10.7363 18.6674 10.7363C19.6884 10.7363 20.6677 11.1417 21.3899 11.8634V11.8627Z" fill="#4C4C4D"/>
</g>
<defs>
<clipPath id="clip0_1_557">
<rect width="57.1666" height="28" fill="white" transform="translate(0.0595703)"/>
</clipPath>
</defs>
</svg>
