<svg width="66" height="28" viewBox="0 0 66 28" fill="none" xmlns="http://www.w3.org/2000/svg">
<g id="Logo" clip-path="url(#clip0_1_581)">
<path id="Vector" d="M9.60008 22.204C8.62599 22.3751 7.63477 22.4264 6.60941 22.563L3.48189 13.4029V22.9561C2.5078 23.0586 1.61915 23.1953 0.696289 23.332V5.83203H3.29402L6.84863 15.7614V5.83203H9.60008V22.204ZM14.9834 12.2407C16.043 12.2407 17.6666 12.1894 18.6406 12.1894V14.9238C17.4272 14.9238 16.0088 14.9238 14.9834 14.975V19.0425C16.5899 18.94 18.1964 18.8031 19.8198 18.7519V21.3835L12.249 21.9818V5.83203H19.8198V8.56641H14.9834V12.2407ZM29.9882 8.56647H27.1514V21.1446C26.2285 21.1446 25.3056 21.1446 24.4171 21.1787V8.56647H21.5802V5.83203H29.9884L29.9882 8.56647ZM34.4316 12.0528H38.1743V14.7871H34.4316V20.9908H31.7483V5.83203H39.3877V8.56641H34.4316V12.0528ZM43.831 18.5981C45.3862 18.6322 46.9584 18.7521 48.4795 18.8374V21.5376C46.0357 21.3837 43.5918 21.2301 41.0967 21.1787V5.83203H43.831V18.5981ZM50.7866 21.7256C51.6581 21.7769 52.581 21.8282 53.4697 21.9306V5.83203H50.7866V21.7256ZM65.4497 5.83203L61.9804 14.1548L65.4497 23.332C64.4243 23.1953 63.3989 23.0073 62.3735 22.8364L60.4082 17.7779L58.4089 22.4264C57.4175 22.2553 56.4605 22.204 55.4694 22.0673L58.9899 14.0522L55.8111 5.83203H58.7504L60.5449 10.4292L62.459 5.83203H65.4497V5.83203Z" fill="#4C4C4D"/>
</g>
<defs>
<clipPath id="clip0_1_581">
<rect width="64.75" height="28" fill="white" transform="translate(0.696533)"/>
</clipPath>
</defs>
</svg>
