<svg width="57" height="28" viewBox="0 0 57 28" fill="none" xmlns="http://www.w3.org/2000/svg">
<g id="Logo" clip-path="url(#clip0_1_549)">
<g id="Vector">
<path d="M0.929276 20.6471L6.6777 11.7024H1.61025C1.56731 11.4447 1.5489 11.1625 1.5489 10.8496C1.5489 10.549 1.56731 10.2729 1.61025 10.0214H9.81264L9.91693 10.2975L4.12557 19.2606H9.55497C9.59792 19.5428 9.61632 19.8373 9.61632 20.1317C9.61632 20.4139 9.59792 20.6839 9.55497 20.9415H1.03357L0.929276 20.6471Z" fill="#4C4C4D"/>
<path d="M17.5181 13.7454C17.5181 12.9049 17.3034 12.3282 16.8801 11.9969C16.4568 11.6718 15.8372 11.5062 15.0274 11.5062C14.5304 11.5062 14.0642 11.543 13.6347 11.6227C13.1992 11.7025 12.782 11.8006 12.3648 11.9295C12.0949 11.4632 11.9599 10.8988 11.9599 10.2485C12.4446 10.0951 12.9722 9.97242 13.555 9.88653C14.1378 9.80065 14.6961 9.7577 15.236 9.7577C16.6531 9.7577 17.7329 10.0829 18.4752 10.727C19.2114 11.3712 19.5856 12.408 19.5856 13.8252V20.6595C19.0887 20.7699 18.4875 20.8926 17.7758 21.0091C17.0642 21.1318 16.3402 21.1871 15.604 21.1871C14.9108 21.1871 14.2789 21.1257 13.7206 20.9969C13.1623 20.868 12.6838 20.6656 12.2912 20.3773C11.8986 20.095 11.5979 19.7331 11.3832 19.2914C11.1685 18.8497 11.0642 18.3159 11.0642 17.6963C11.0642 17.0889 11.1869 16.5491 11.4384 16.0889C11.6838 15.6288 12.0213 15.2423 12.4507 14.9417C12.874 14.635 13.3648 14.408 13.9231 14.2607C14.4752 14.1135 15.058 14.0337 15.6715 14.0337C16.1255 14.0337 16.4997 14.046 16.7881 14.0644C17.0764 14.0828 17.3218 14.1135 17.5243 14.138V13.7454H17.5181ZM17.5181 15.8129C17.3034 15.7822 17.0335 15.7577 16.7083 15.727C16.3832 15.6963 16.1071 15.684 15.8801 15.684C14.9967 15.684 14.328 15.8497 13.8679 16.1748C13.4077 16.5 13.1746 16.9969 13.1746 17.6656C13.1746 18.0889 13.2544 18.4263 13.4077 18.6656C13.5611 18.9049 13.7574 19.0889 13.9906 19.2178C14.2237 19.3466 14.4814 19.4263 14.7697 19.4509C15.0519 19.4816 15.3218 19.4938 15.5795 19.4938C15.9047 19.4938 16.2421 19.4754 16.5918 19.4386C16.9415 19.4018 17.2482 19.3527 17.5181 19.2791V15.8129Z" fill="#4C4C4D"/>
<path d="M21.8862 10.0218C22.0273 9.99117 22.1745 9.97277 22.3217 9.9605C22.469 9.94823 22.6224 9.94209 22.7819 9.94209C22.923 9.94209 23.0702 9.94823 23.2297 9.9605C23.3831 9.97277 23.5365 9.99731 23.6776 10.0218C23.6898 10.0525 23.7082 10.1384 23.7328 10.2856C23.7512 10.4329 23.7757 10.5924 23.7941 10.7642C23.8125 10.936 23.8371 11.0955 23.8555 11.255C23.8739 11.4145 23.8861 11.5126 23.8861 11.5556C24.0272 11.3286 24.199 11.1077 24.3953 10.893C24.5917 10.6783 24.8309 10.4881 25.107 10.3163C25.3831 10.1445 25.6959 10.0096 26.0456 9.91142C26.3953 9.81326 26.7818 9.76418 27.2051 9.76418C27.8432 9.76418 28.4383 9.86847 28.9843 10.0832C29.5303 10.2979 29.9965 10.6231 30.3892 11.0709C30.7818 11.5188 31.0824 12.0893 31.3033 12.7764C31.5241 13.4635 31.6345 14.2795 31.6345 15.2181C31.6345 17.0954 31.1253 18.5617 30.1131 19.6169C29.0947 20.6721 27.6591 21.2058 25.8002 21.2058C25.4874 21.2058 25.1683 21.1874 24.8432 21.1445C24.518 21.1015 24.2297 21.0463 23.9904 20.9727V25.9788C23.8187 26.0095 23.6407 26.0279 23.4444 26.0401C23.2542 26.0524 23.0763 26.0585 22.923 26.0585C22.7696 26.0585 22.5917 26.0524 22.4015 26.0401C22.2113 26.0279 22.0334 26.0033 21.88 25.9788V10.0218H21.8862ZM23.9966 19.1567C24.2665 19.2549 24.5426 19.3285 24.8248 19.3715C25.107 19.4144 25.4751 19.4328 25.9352 19.4328C26.4444 19.4328 26.9168 19.3531 27.3401 19.1874C27.7634 19.0218 28.1315 18.7702 28.4383 18.4328C28.745 18.0893 28.9843 17.6598 29.1622 17.1445C29.3401 16.6292 29.426 16.0095 29.426 15.304C29.426 14.1691 29.2174 13.2672 28.8002 12.5985C28.383 11.9298 27.6959 11.5985 26.745 11.5985C26.3892 11.5985 26.0518 11.6599 25.7205 11.7887C25.3953 11.9175 25.1009 12.1077 24.8493 12.3654C24.5917 12.6231 24.3892 12.9421 24.2297 13.3347C24.0702 13.7273 23.9966 14.1875 23.9966 14.7273V19.1567Z" fill="#4C4C4D"/>
<path d="M34.2603 11.6778H32.8738C32.8431 11.5612 32.8247 11.4324 32.8124 11.2852C32.8002 11.1379 32.794 10.9907 32.794 10.8496C32.794 10.7085 32.8002 10.5613 32.8124 10.414C32.8247 10.2668 32.8493 10.1318 32.8738 10.0214H36.3277V20.9477C36.1744 20.9784 35.9965 20.9968 35.8063 21.009C35.6161 21.0213 35.4382 21.0274 35.2848 21.0274C35.1437 21.0274 34.9781 21.0213 34.7817 21.009C34.5916 20.9968 34.4137 20.9722 34.2603 20.9477V11.6778Z" fill="#4C4C4D"/>
<path d="M40.8615 16.0032C40.8921 17.1934 41.1989 18.0707 41.7878 18.6228C42.3768 19.175 43.2479 19.451 44.3952 19.451C45.4013 19.451 46.3645 19.2731 47.2724 18.9173C47.389 19.132 47.481 19.3897 47.5485 19.6964C47.6221 20.0032 47.6589 20.3038 47.6773 20.6044C47.2111 20.8007 46.6958 20.9541 46.1313 21.0522C45.5731 21.1504 44.9473 21.1995 44.2663 21.1995C43.2725 21.1995 42.4197 21.0584 41.7081 20.7823C40.9964 20.5062 40.4136 20.1136 39.9535 19.6105C39.4934 19.1075 39.1559 18.5124 38.9412 17.8191C38.7265 17.132 38.6222 16.3774 38.6222 15.5492C38.6222 14.7394 38.7265 13.9848 38.9289 13.2793C39.1314 12.5738 39.4504 11.9664 39.8737 11.445C40.297 10.9296 40.8369 10.5125 41.4811 10.2118C42.1252 9.90509 42.8921 9.75172 43.7694 9.75172C44.524 9.75172 45.1804 9.88055 45.751 10.1382C46.3215 10.3959 46.7939 10.7456 47.1804 11.1934C47.5608 11.6413 47.8553 12.175 48.0516 12.7885C48.2479 13.4081 48.3522 14.0768 48.3522 14.8008C48.3522 14.9971 48.346 15.2118 48.3276 15.4265C48.3154 15.6474 48.297 15.8376 48.2847 15.9909H40.8615V16.0032ZM46.2724 14.4265C46.2724 14.0278 46.2172 13.6474 46.1129 13.2854C46.0086 12.9235 45.8491 12.6106 45.6467 12.3407C45.4381 12.0707 45.1804 11.856 44.8614 11.6904C44.5424 11.5247 44.162 11.445 43.7203 11.445C42.8553 11.445 42.1927 11.7088 41.7265 12.2302C41.2663 12.7578 40.9841 13.4879 40.886 14.4265H46.2724Z" fill="#4C4C4D"/>
<path d="M50.6835 10.0214C50.8369 9.99071 50.9902 9.97231 51.1313 9.96004C51.2724 9.94777 51.4197 9.94163 51.5792 9.94163C51.7326 9.94163 51.8921 9.94777 52.0454 9.96004C52.1988 9.97231 52.3461 9.99685 52.4688 10.0214C52.5117 10.2361 52.5546 10.5122 52.5976 10.8619C52.6405 11.2116 52.6589 11.506 52.6589 11.7453C52.9596 11.2606 53.3522 10.8435 53.843 10.4876C54.3338 10.1318 54.9595 9.9539 55.7264 9.9539C55.843 9.9539 55.9595 9.96004 56.0761 9.96617C56.1988 9.97231 56.297 9.98458 56.3828 9.99685C56.4135 10.1257 56.4319 10.2606 56.4442 10.4017C56.4565 10.5429 56.4626 10.6901 56.4626 10.8496C56.4626 11.0214 56.4503 11.1993 56.4319 11.3833C56.4135 11.5674 56.3828 11.7453 56.3583 11.9171C56.2417 11.8864 56.1252 11.8741 56.0086 11.8741C55.8859 11.8741 55.7939 11.8741 55.7203 11.8741C55.3399 11.8741 54.9718 11.9293 54.6221 12.0336C54.2724 12.1379 53.9595 12.3281 53.6835 12.5981C53.4074 12.868 53.1865 13.2361 53.0209 13.7085C52.8553 14.1747 52.7755 14.7821 52.7755 15.5183V20.9477C52.6221 20.9784 52.4442 20.9968 52.254 21.009C52.0639 21.0213 51.8859 21.0274 51.7326 21.0274C51.5792 21.0274 51.4013 21.0213 51.2111 21.009C51.0209 20.9968 50.8369 20.9722 50.6651 20.9477V10.0214H50.6835Z" fill="#4C4C4D"/>
<path d="M38.3338 3.59222H36.2724L37.7326 2.13211C37.616 1.9726 37.4872 1.81923 37.3522 1.67813C37.2111 1.53702 37.0639 1.40819 36.8982 1.29776L35.4381 2.75787V0.69654C35.2479 0.665866 35.0516 0.647461 34.8492 0.647461H34.843C34.6406 0.647461 34.4442 0.665866 34.2541 0.69654V2.75787L32.794 1.29776C32.6344 1.41433 32.4811 1.54316 32.34 1.67813C32.1989 1.81923 32.0762 1.96647 31.9596 2.13211L33.4258 3.59222H31.3645C31.3645 3.59222 31.3154 3.97872 31.3154 4.18118C31.3154 4.38363 31.3338 4.57995 31.3645 4.77013H33.4258L31.9657 6.23024C32.1927 6.54926 32.4749 6.83146 32.8001 7.06459L34.2602 5.60448V7.66581C34.4504 7.69649 34.6467 7.71489 34.8492 7.71489H34.8553C35.0577 7.71489 35.2541 7.69649 35.4442 7.66581V5.60448L36.9043 7.06459C37.0639 6.94803 37.2172 6.81919 37.3583 6.68423C37.4994 6.54312 37.6283 6.39588 37.7387 6.23024L36.2786 4.77013H38.3399C38.3706 4.57995 38.389 4.38363 38.389 4.18118V4.17504C38.3829 3.97872 38.3706 3.78241 38.3338 3.59222ZM35.7326 4.18731C35.7326 4.45111 35.6835 4.70265 35.5976 4.93577C35.3645 5.02166 35.113 5.07074 34.8492 5.07074C34.5854 5.07074 34.3338 5.02166 34.1007 4.93577C34.0148 4.70265 33.9657 4.45111 33.9657 4.18731V4.18118C33.9657 3.91738 34.0148 3.66584 34.1007 3.43272C34.3338 3.34683 34.5854 3.29775 34.8492 3.29775C35.113 3.29775 35.3645 3.34683 35.5976 3.43272C35.6835 3.66584 35.7326 3.91738 35.7326 4.18731Z" fill="#4C4C4D"/>
</g>
</g>
<defs>
<clipPath id="clip0_1_549">
<rect width="56" height="28" fill="white" transform="translate(0.928574)"/>
</clipPath>
</defs>
</svg>
